<svg xmlns="http://www.w3.org/2000/svg" width="133" height="26" viewBox="0 0 133 26">
    <g fill="#071EB3" fill-rule="evenodd">
        <path fill-rule="nonzero" d="M9.602.487c.21-.056.418-.106.624-.15A13.29 13.29 0 0 1 13.57.074c.465.027.884.064 1.24.128.182.027.346.054.492.082.146.027.283.064.41.082.119.027.228.055.32.082.09.027.172.045.227.064l.192.054S16.388.547 16.26.52a2.378 2.378 0 0 0-.237-.055c-.091-.018-.2-.045-.319-.064-.483-.1-1.212-.21-2.142-.237a12.9 12.9 0 0 0-3.069.284c.66.037 1.521.213 2.403.756.174.118.338.264.52.373.465.292.957.529 1.477.72.73.265 1.504.42 2.279.465.264.01.538.01.802 0 .2-.009.392-.018.592-.045.137-.019.265-.064.402-.082.337-.028.583.136.692.446 0 0 .11.301-.2.611l-.164.091s-1.523.584-3.355 2.297c0 0-1.121 1.149-1.668 1.988 0 0-1.04 1.467-1.55 3.135 0 0-2.55 7.76 4.069 13.758a12.315 12.315 0 0 0 4.063-2.098 12.38 12.38 0 0 0 1.896-1.815c.136-.154.264-.328.4-.492l.101-.127.046-.064.045-.064c.055-.082.119-.173.173-.255.246-.328.438-.684.648-1.021.382-.693.683-1.386.93-2.06.054-.174.109-.338.163-.51l.082-.247c.019-.082.046-.164.064-.246.046-.164.082-.328.119-.492.027-.164.064-.329.091-.483a12.53 12.53 0 0 0 .146-3.328c-.073-.92-.246-1.64-.356-2.124-.146-.501-.218-.756-.218-.756l.237.729c.027.118.063.255.1.401.036.146.082.31.118.492.037.173.073.365.11.575.027.21.054.428.09.656.101.93.128 2.07-.072 3.355l-.082.492-.11.501-.054.255c-.028.082-.046.174-.073.256-.055.173-.1.346-.155.52a13.966 13.966 0 0 1-.912 2.114c-.2.346-.4.711-.647 1.048-.055.092-.118.174-.173.265l-.046.073-.045.063-.091.128c-.128.164-.256.337-.392.501a12.94 12.94 0 0 1-1.915 1.887 13.39 13.39 0 0 1-2.397 1.523 13.11 13.11 0 0 1-5.862 1.294 12.975 12.975 0 0 1-3.117-.428c-1.03-.265-2.024-.684-2.972-1.204-.237-.127-.465-.273-.693-.41-.118-.073-.228-.155-.337-.228-.11-.082-.219-.145-.337-.237l-.32-.246-.154-.118-.155-.128-.31-.264-.301-.274a13.564 13.564 0 0 1-1.112-1.176c-.337-.419-.666-.847-.948-1.312a12.54 12.54 0 0 1-.775-1.413l-.164-.365c-.027-.064-.055-.118-.082-.182l-.073-.183-.146-.373-.128-.374a12.983 12.983 0 0 1-.61-3.09c-.082-1.04-.028-2.07.136-3.072a12.778 12.778 0 0 1 2.197-5.333 13.093 13.093 0 0 1 1.769-2.024A12.66 12.66 0 0 1 6.178 1.96c.684-.42 1.377-.766 2.06-1.03.25-.097.498-.183.742-.262l.288-.103c.109-.036.217-.06.334-.078zM3.416 21.046c.172.198.35.395.533.586-.775-8.511 5.866-12.962 6.374-13.29-.452.22-7.844 3.966-6.907 12.697v.007zM11.33 5.944a1.211 1.211 0 0 0-2.051-1.286 1.211 1.211 0 0 0 2.05 1.286z"/>
        <path d="M41.314 19V6.4h4.302c3.456 0 4.05 2.268 4.05 3.582 0 1.728-1.134 2.448-1.998 2.646.738.18 2.106.864 2.106 2.718 0 1.314-.594 3.654-4.05 3.654h-4.41zm4.428-5.454h-2.358v3.6h2.34c1.692 0 1.98-1.152 1.98-1.8 0-.63-.378-1.8-1.962-1.8zm-2.358-1.854h2.232c1.692 0 1.98-1.098 1.98-1.71 0-.63-.288-1.728-1.98-1.728h-2.232v3.438zM59.422 15.4h-5.94c.018 1.206.612 2.178 2.196 2.178 1.116 0 1.53-.504 1.782-1.098h1.98c-.27 1.44-1.62 2.736-3.762 2.736-2.826 0-4.194-2.124-4.194-4.41 0-2.52 1.494-4.41 4.14-4.41 2.178 0 3.888 1.638 3.888 3.78 0 .288 0 .684-.09 1.224zm-3.852-3.366c-1.152 0-2.07.666-2.07 1.908h4.104c0-1.17-.846-1.908-2.034-1.908zM61.636 19h1.962V6.4h-1.962V19zm4.59 0h1.962V6.4h-1.962V19zm8.37.216c-2.664 0-4.41-2.034-4.41-4.41 0-2.376 1.746-4.41 4.41-4.41 2.7 0 4.446 2.034 4.446 4.41 0 2.376-1.746 4.41-4.446 4.41zm0-1.746c1.512 0 2.484-1.224 2.484-2.664 0-1.44-.972-2.664-2.484-2.664-1.476 0-2.448 1.224-2.448 2.664 0 1.44.972 2.664 2.448 2.664zm11.088-.198a7.47 7.47 0 0 1-.99.072c-.774 0-1.224-.18-1.224-1.638V12.25h1.926v-1.638H83.47V8.074h-1.962v2.538h-1.422v1.638h1.422v3.906c0 2.826 1.764 2.952 2.718 2.952A9.49 9.49 0 0 0 85.684 19v-1.728zm9.018-1.872h-5.94c.018 1.206.612 2.178 2.196 2.178 1.116 0 1.53-.504 1.782-1.098h1.98c-.27 1.44-1.62 2.736-3.762 2.736-2.826 0-4.194-2.124-4.194-4.41 0-2.52 1.494-4.41 4.14-4.41 2.178 0 3.888 1.638 3.888 3.78 0 .288 0 .684-.09 1.224zm-3.852-3.366c-1.152 0-2.07.666-2.07 1.908h4.104c0-1.17-.846-1.908-2.034-1.908zm11.394-1.404c-.216-.09-.468-.126-.774-.126-1.116 0-2.214.684-2.592 1.458v-1.35h-1.962V19h1.962v-3.618c0-2.088.918-3.042 2.592-3.042.306 0 .468.018.774.09v-1.8zm5.256 8.586c-2.664 0-4.41-2.034-4.41-4.41 0-2.376 1.746-4.41 4.41-4.41 2.7 0 4.446 2.034 4.446 4.41 0 2.376-1.746 4.41-4.446 4.41zm0-1.746c1.512 0 2.484-1.224 2.484-2.664 0-1.44-.972-2.664-2.484-2.664-1.476 0-2.448 1.224-2.448 2.664 0 1.44.972 2.664 2.448 2.664zm6.21.198c0 .792.648 1.44 1.44 1.44a1.448 1.448 0 1 0 0-2.898c-.792 0-1.44.648-1.44 1.458zM119.398 19h1.962v-8.388h-1.962V19zm-.468-11.448c0 .792.648 1.44 1.44 1.44a1.448 1.448 0 1 0 0-2.898c-.792 0-1.44.648-1.44 1.458zm9.234 11.664c-2.664 0-4.41-2.034-4.41-4.41 0-2.376 1.746-4.41 4.41-4.41 2.7 0 4.446 2.034 4.446 4.41 0 2.376-1.746 4.41-4.446 4.41zm0-1.746c1.512 0 2.484-1.224 2.484-2.664 0-1.44-.972-2.664-2.484-2.664-1.476 0-2.448 1.224-2.448 2.664 0 1.44.972 2.664 2.448 2.664z"/>
    </g>
</svg>
